<svg xmlns="http://www.w3.org/2000/svg" xmlns:xlink="http://www.w3.org/1999/xlink" width="500" zoomAndPan="magnify" viewBox="0 0 375 374.999991" height="500" preserveAspectRatio="xMidYMid meet" version="1.0"><defs><g/><clipPath id="185f12e83a"><path d="M 37.5 140 L 73 140 L 73 170 L 37.5 170 Z M 37.5 140 " clip-rule="nonzero"/></clipPath><clipPath id="36416ed837"><path d="M 37.5 109 L 179.25 109 L 179.25 178 L 37.5 178 Z M 37.5 109 " clip-rule="nonzero"/></clipPath></defs><rect x="-37.5" width="450" fill="#ffffff" y="-37.499999" height="449.999989" fill-opacity="1"/><rect x="-37.5" width="450" fill="#000000" y="-37.499999" height="449.999989" fill-opacity="1"/><path fill="#f4f6fc" d="M 113.171875 156.503906 L 91.605469 193.894531 L 81.921875 177.125 C 74.957031 180.777344 68.359375 183.226562 62.433594 183.632812 L 91.605469 234.144531 L 150.34375 132.351562 C 139.359375 137.226562 126.382812 146.875 113.171875 156.503906 " fill-opacity="1" fill-rule="nonzero"/><g clip-path="url(#185f12e83a)"><path fill="#f4f6fc" d="M 72.925781 161.546875 L 60.726562 140.421875 L 37.484375 140.421875 L 54.492188 169.878906 C 59.828125 168.851562 66.089844 165.761719 72.925781 161.546875 " fill-opacity="1" fill-rule="nonzero"/></g><g clip-path="url(#36416ed837)"><path fill="#f1511b" d="M 37.484375 148.550781 C 54.761719 242.792969 165.59375 66.964844 179.230469 141.367188 C 160.894531 41.34375 49.394531 213.527344 37.484375 148.550781 " fill-opacity="1" fill-rule="nonzero"/></g><g fill="#ffffff" fill-opacity="1"><g transform="translate(116.816107, 228.715458)"><g><path d="M 8.9375 0 L 8.9375 -33.921875 L 4.734375 -33.921875 L 4.734375 0 Z M 8.9375 0 "/></g></g><g transform="translate(130.49021, 228.715458)"><g><path d="M 51.953125 0 L 47.75 0 L 47.75 -25.3125 L 29.4375 0 L 27.25 0 L 8.9375 -25.3125 L 8.9375 0 L 4.734375 0 L 4.734375 -33.921875 L 7.90625 -33.921875 L 28.34375 -5.671875 L 48.765625 -33.921875 L 51.953125 -33.921875 Z M 51.953125 0 "/></g></g><g transform="translate(187.173864, 228.715458)"><g><path d="M 36.53125 0 L 11.265625 0 C 9.128906 0 7.304688 -0.75 5.796875 -2.25 C 4.296875 -3.757812 3.546875 -5.582031 3.546875 -7.71875 L 7.765625 -7.71875 C 7.765625 -6.75 8.101562 -5.921875 8.78125 -5.234375 C 9.46875 -4.554688 10.296875 -4.21875 11.265625 -4.21875 L 36.53125 -4.21875 C 37.488281 -4.21875 38.3125 -4.554688 39 -5.234375 C 39.6875 -5.921875 40.03125 -6.75 40.03125 -7.71875 L 40.03125 -11.359375 C 40.03125 -12.316406 39.6875 -13.140625 39 -13.828125 C 38.3125 -14.515625 37.488281 -14.859375 36.53125 -14.859375 L 11.265625 -14.859375 C 9.128906 -14.859375 7.304688 -15.609375 5.796875 -17.109375 C 4.296875 -18.617188 3.546875 -20.441406 3.546875 -22.578125 L 3.546875 -26.21875 C 3.546875 -28.34375 4.296875 -30.15625 5.796875 -31.65625 C 7.304688 -33.164062 9.128906 -33.921875 11.265625 -33.921875 L 36.53125 -33.921875 C 38.65625 -33.921875 40.46875 -33.164062 41.96875 -31.65625 C 43.476562 -30.15625 44.234375 -28.34375 44.234375 -26.21875 L 40.03125 -26.21875 C 40.03125 -27.175781 39.6875 -28 39 -28.6875 C 38.3125 -29.375 37.488281 -29.71875 36.53125 -29.71875 L 11.265625 -29.71875 C 10.296875 -29.71875 9.46875 -29.375 8.78125 -28.6875 C 8.101562 -28 7.765625 -27.175781 7.765625 -26.21875 L 7.765625 -22.578125 C 7.765625 -21.609375 8.101562 -20.78125 8.78125 -20.09375 C 9.46875 -19.40625 10.296875 -19.0625 11.265625 -19.0625 L 36.53125 -19.0625 C 38.65625 -19.0625 40.46875 -18.304688 41.96875 -16.796875 C 43.476562 -15.296875 44.234375 -13.484375 44.234375 -11.359375 L 44.234375 -7.71875 C 44.234375 -5.582031 43.476562 -3.757812 41.96875 -2.25 C 40.46875 -0.75 38.65625 0 36.53125 0 Z M 36.53125 0 "/></g></g><g transform="translate(234.962253, 228.715458)"><g><path d="M 25.265625 0 L 21.078125 0 L 21.078125 -16 L 0.703125 -33.921875 L 7.09375 -33.921875 L 23.15625 -19.75 L 39.25 -33.921875 L 45.640625 -33.921875 L 25.265625 -16 Z M 25.265625 0 "/></g></g><g transform="translate(281.307528, 228.715458)"><g><path d="M 36.53125 0 L 11.265625 0 C 9.128906 0 7.304688 -0.75 5.796875 -2.25 C 4.296875 -3.757812 3.546875 -5.582031 3.546875 -7.71875 L 7.765625 -7.71875 C 7.765625 -6.75 8.101562 -5.921875 8.78125 -5.234375 C 9.46875 -4.554688 10.296875 -4.21875 11.265625 -4.21875 L 36.53125 -4.21875 C 37.488281 -4.21875 38.3125 -4.554688 39 -5.234375 C 39.6875 -5.921875 40.03125 -6.75 40.03125 -7.71875 L 40.03125 -11.359375 C 40.03125 -12.316406 39.6875 -13.140625 39 -13.828125 C 38.3125 -14.515625 37.488281 -14.859375 36.53125 -14.859375 L 11.265625 -14.859375 C 9.128906 -14.859375 7.304688 -15.609375 5.796875 -17.109375 C 4.296875 -18.617188 3.546875 -20.441406 3.546875 -22.578125 L 3.546875 -26.21875 C 3.546875 -28.34375 4.296875 -30.15625 5.796875 -31.65625 C 7.304688 -33.164062 9.128906 -33.921875 11.265625 -33.921875 L 36.53125 -33.921875 C 38.65625 -33.921875 40.46875 -33.164062 41.96875 -31.65625 C 43.476562 -30.15625 44.234375 -28.34375 44.234375 -26.21875 L 40.03125 -26.21875 C 40.03125 -27.175781 39.6875 -28 39 -28.6875 C 38.3125 -29.375 37.488281 -29.71875 36.53125 -29.71875 L 11.265625 -29.71875 C 10.296875 -29.71875 9.46875 -29.375 8.78125 -28.6875 C 8.101562 -28 7.765625 -27.175781 7.765625 -26.21875 L 7.765625 -22.578125 C 7.765625 -21.609375 8.101562 -20.78125 8.78125 -20.09375 C 9.46875 -19.40625 10.296875 -19.0625 11.265625 -19.0625 L 36.53125 -19.0625 C 38.65625 -19.0625 40.46875 -18.304688 41.96875 -16.796875 C 43.476562 -15.296875 44.234375 -13.484375 44.234375 -11.359375 L 44.234375 -7.71875 C 44.234375 -5.582031 43.476562 -3.757812 41.96875 -2.25 C 40.46875 -0.75 38.65625 0 36.53125 0 Z M 36.53125 0 "/></g></g></g></svg>