<svg xmlns="http://www.w3.org/2000/svg" xmlns:xlink="http://www.w3.org/1999/xlink" width="500" zoomAndPan="magnify" viewBox="0 0 375 374.999991" height="500" preserveAspectRatio="xMidYMid meet" version="1.0"><defs><clipPath id="ef27bb1d6f"><path d="M 82.125 161 L 135 161 L 135 206 L 82.125 206 Z M 82.125 161 " clip-rule="nonzero"/></clipPath><clipPath id="cc78033caf"><path d="M 82.125 115 L 292.875 115 L 292.875 217 L 82.125 217 Z M 82.125 115 " clip-rule="nonzero"/></clipPath></defs><path fill="#f4f6fc" d="M 194.632812 185.753906 L 162.566406 241.355469 L 148.171875 216.421875 C 137.816406 221.851562 128.007812 225.488281 119.199219 226.09375 L 162.566406 301.207031 L 249.898438 149.835938 C 233.5625 157.085938 214.273438 171.433594 194.632812 185.753906 " fill-opacity="1" fill-rule="nonzero"/><g clip-path="url(#ef27bb1d6f)"><path fill="#f4f6fc" d="M 134.792969 193.25 L 116.660156 161.839844 L 82.101562 161.839844 L 107.390625 205.640625 C 115.320312 204.113281 124.628906 199.519531 134.792969 193.25 " fill-opacity="1" fill-rule="nonzero"/></g><g clip-path="url(#cc78033caf)"><path fill="#f1511b" d="M 82.101562 173.925781 C 107.785156 314.066406 272.570312 52.605469 292.84375 163.246094 C 265.585938 14.507812 99.8125 270.546875 82.101562 173.925781 " fill-opacity="1" fill-rule="nonzero"/></g></svg>