<svg xmlns="http://www.w3.org/2000/svg" xmlns:xlink="http://www.w3.org/1999/xlink" width="250" zoomAndPan="magnify" viewBox="0 0 375 374.999991" height="150" preserveAspectRatio="xMidYMid meet" version="1.0"><defs><g/><clipPath id="233c3cf7ca"><path d="M 65.152344 164 L 101 164 L 101 194 L 65.152344 194 Z M 65.152344 164 " clip-rule="nonzero"/></clipPath><clipPath id="848d85c11b"><path d="M 65.152344 132 L 206.902344 132 L 206.902344 201 L 65.152344 201 Z M 65.152344 132 " clip-rule="nonzero"/></clipPath></defs><path fill="#f4f6fc" d="M 140.824219 180.109375 L 119.257812 217.5 L 109.574219 200.734375 C 102.609375 204.382812 96.011719 206.832031 90.089844 207.238281 L 119.257812 257.75 L 177.996094 155.957031 C 167.011719 160.832031 154.035156 170.480469 140.824219 180.109375 " fill-opacity="1" fill-rule="nonzero"/><g clip-path="url(#233c3cf7ca)"><path fill="#f4f6fc" d="M 100.578125 185.152344 L 88.382812 164.027344 L 65.136719 164.027344 L 82.144531 193.484375 C 87.480469 192.457031 93.742188 189.367188 100.578125 185.152344 " fill-opacity="1" fill-rule="nonzero"/></g><g clip-path="url(#848d85c11b)"><path fill="#f1511b" d="M 65.136719 172.15625 C 82.414062 266.398438 193.246094 90.570312 206.882812 164.972656 C 188.546875 64.949219 77.046875 237.132812 65.136719 172.15625 " fill-opacity="1" fill-rule="nonzero"/></g><g fill="#ffffff" fill-opacity="1"><g transform="translate(144.468991, 252.321561)"><g><path d="M 8.9375 0 L 8.9375 -33.921875 L 4.734375 -33.921875 L 4.734375 0 Z M 8.9375 0 "/></g></g><g transform="translate(158.143094, 252.321561)"><g><path d="M 51.953125 0 L 47.75 0 L 47.75 -25.3125 L 29.4375 0 L 27.25 0 L 8.9375 -25.3125 L 8.9375 0 L 4.734375 0 L 4.734375 -33.921875 L 7.90625 -33.921875 L 28.34375 -5.671875 L 48.765625 -33.921875 L 51.953125 -33.921875 Z M 51.953125 0 "/></g></g><g transform="translate(214.826748, 252.321561)"><g><path d="M 36.53125 0 L 11.265625 0 C 9.128906 0 7.304688 -0.75 5.796875 -2.25 C 4.296875 -3.757812 3.546875 -5.582031 3.546875 -7.71875 L 7.765625 -7.71875 C 7.765625 -6.75 8.101562 -5.921875 8.78125 -5.234375 C 9.46875 -4.554688 10.296875 -4.21875 11.265625 -4.21875 L 36.53125 -4.21875 C 37.488281 -4.21875 38.3125 -4.554688 39 -5.234375 C 39.6875 -5.921875 40.03125 -6.75 40.03125 -7.71875 L 40.03125 -11.359375 C 40.03125 -12.316406 39.6875 -13.140625 39 -13.828125 C 38.3125 -14.515625 37.488281 -14.859375 36.53125 -14.859375 L 11.265625 -14.859375 C 9.128906 -14.859375 7.304688 -15.609375 5.796875 -17.109375 C 4.296875 -18.617188 3.546875 -20.441406 3.546875 -22.578125 L 3.546875 -26.21875 C 3.546875 -28.34375 4.296875 -30.15625 5.796875 -31.65625 C 7.304688 -33.164062 9.128906 -33.921875 11.265625 -33.921875 L 36.53125 -33.921875 C 38.65625 -33.921875 40.46875 -33.164062 41.96875 -31.65625 C 43.476562 -30.15625 44.234375 -28.34375 44.234375 -26.21875 L 40.03125 -26.21875 C 40.03125 -27.175781 39.6875 -28 39 -28.6875 C 38.3125 -29.375 37.488281 -29.71875 36.53125 -29.71875 L 11.265625 -29.71875 C 10.296875 -29.71875 9.46875 -29.375 8.78125 -28.6875 C 8.101562 -28 7.765625 -27.175781 7.765625 -26.21875 L 7.765625 -22.578125 C 7.765625 -21.609375 8.101562 -20.78125 8.78125 -20.09375 C 9.46875 -19.40625 10.296875 -19.0625 11.265625 -19.0625 L 36.53125 -19.0625 C 38.65625 -19.0625 40.46875 -18.304688 41.96875 -16.796875 C 43.476562 -15.296875 44.234375 -13.484375 44.234375 -11.359375 L 44.234375 -7.71875 C 44.234375 -5.582031 43.476562 -3.757812 41.96875 -2.25 C 40.46875 -0.75 38.65625 0 36.53125 0 Z M 36.53125 0 "/></g></g><g transform="translate(262.615138, 252.321561)"><g><path d="M 25.265625 0 L 21.078125 0 L 21.078125 -16 L 0.703125 -33.921875 L 7.09375 -33.921875 L 23.15625 -19.75 L 39.25 -33.921875 L 45.640625 -33.921875 L 25.265625 -16 Z M 25.265625 0 "/></g></g><g transform="translate(308.960412, 252.321561)"><g><path d="M 36.53125 0 L 11.265625 0 C 9.128906 0 7.304688 -0.75 5.796875 -2.25 C 4.296875 -3.757812 3.546875 -5.582031 3.546875 -7.71875 L 7.765625 -7.71875 C 7.765625 -6.75 8.101562 -5.921875 8.78125 -5.234375 C 9.46875 -4.554688 10.296875 -4.21875 11.265625 -4.21875 L 36.53125 -4.21875 C 37.488281 -4.21875 38.3125 -4.554688 39 -5.234375 C 39.6875 -5.921875 40.03125 -6.75 40.03125 -7.71875 L 40.03125 -11.359375 C 40.03125 -12.316406 39.6875 -13.140625 39 -13.828125 C 38.3125 -14.515625 37.488281 -14.859375 36.53125 -14.859375 L 11.265625 -14.859375 C 9.128906 -14.859375 7.304688 -15.609375 5.796875 -17.109375 C 4.296875 -18.617188 3.546875 -20.441406 3.546875 -22.578125 L 3.546875 -26.21875 C 3.546875 -28.34375 4.296875 -30.15625 5.796875 -31.65625 C 7.304688 -33.164062 9.128906 -33.921875 11.265625 -33.921875 L 36.53125 -33.921875 C 38.65625 -33.921875 40.46875 -33.164062 41.96875 -31.65625 C 43.476562 -30.15625 44.234375 -28.34375 44.234375 -26.21875 L 40.03125 -26.21875 C 40.03125 -27.175781 39.6875 -28 39 -28.6875 C 38.3125 -29.375 37.488281 -29.71875 36.53125 -29.71875 L 11.265625 -29.71875 C 10.296875 -29.71875 9.46875 -29.375 8.78125 -28.6875 C 8.101562 -28 7.765625 -27.175781 7.765625 -26.21875 L 7.765625 -22.578125 C 7.765625 -21.609375 8.101562 -20.78125 8.78125 -20.09375 C 9.46875 -19.40625 10.296875 -19.0625 11.265625 -19.0625 L 36.53125 -19.0625 C 38.65625 -19.0625 40.46875 -18.304688 41.96875 -16.796875 C 43.476562 -15.296875 44.234375 -13.484375 44.234375 -11.359375 L 44.234375 -7.71875 C 44.234375 -5.582031 43.476562 -3.757812 41.96875 -2.25 C 40.46875 -0.75 38.65625 0 36.53125 0 Z M 36.53125 0 "/></g></g></g></svg>